<mxfile host="app.diagrams.net" modified="2024-02-19T09:27:56.494Z" agent="Mozilla/5.0 (Macintosh; Intel Mac OS X 10_15_7) AppleWebKit/537.36 (KHTML, like Gecko) Chrome/121.0.0.0 Safari/537.36" etag="q4xyyBRvBCYFsEQL8vCb" version="23.1.4" type="github">
  <diagram name="第 1 页" id="tCnoyZWbHLgzVc_SQSz8">
    <mxGraphModel dx="2234" dy="760" grid="0" gridSize="10" guides="1" tooltips="1" connect="1" arrows="1" fold="1" page="0" pageScale="1" pageWidth="827" pageHeight="1169" math="0" shadow="0">
      <root>
        <mxCell id="0" />
        <mxCell id="1" parent="0" />
        <mxCell id="xciEQwY7N64C9Vn3VPuA-7" value="" style="rounded=1;whiteSpace=wrap;html=1;" vertex="1" parent="1">
          <mxGeometry x="-586" y="33" width="159" height="179" as="geometry" />
        </mxCell>
        <mxCell id="xciEQwY7N64C9Vn3VPuA-4" value="" style="image;html=1;image=img/lib/clip_art/computers/Monitor_128x128.png;direction=east;rotation=0;" vertex="1" parent="1">
          <mxGeometry x="-542" y="57" width="80" height="82" as="geometry" />
        </mxCell>
        <mxCell id="xciEQwY7N64C9Vn3VPuA-6" value="Sender" style="text;html=1;align=center;verticalAlign=middle;whiteSpace=wrap;rounded=0;;fontSize=16;" vertex="1" parent="1">
          <mxGeometry x="-532" y="169" width="60" height="30" as="geometry" />
        </mxCell>
        <mxCell id="xciEQwY7N64C9Vn3VPuA-8" value="" style="endArrow=classic;html=1;rounded=0;fontSize=21;startSize=8;endSize=8;exitX=1;exitY=0.5;exitDx=0;exitDy=0;" edge="1" parent="1" source="xciEQwY7N64C9Vn3VPuA-7">
          <mxGeometry width="50" height="50" relative="1" as="geometry">
            <mxPoint x="-156" y="270" as="sourcePoint" />
            <mxPoint x="-169" y="125" as="targetPoint" />
          </mxGeometry>
        </mxCell>
        <mxCell id="xciEQwY7N64C9Vn3VPuA-9" value="&lt;font style=&quot;font-size: 20px;&quot;&gt;message&lt;/font&gt;" style="edgeLabel;html=1;align=center;verticalAlign=middle;resizable=0;points=[];;fontSize=12;" vertex="1" connectable="0" parent="xciEQwY7N64C9Vn3VPuA-8">
          <mxGeometry x="-0.0231" y="-2" relative="1" as="geometry">
            <mxPoint as="offset" />
          </mxGeometry>
        </mxCell>
        <mxCell id="xciEQwY7N64C9Vn3VPuA-13" value="" style="group" vertex="1" connectable="0" parent="1">
          <mxGeometry x="-169" y="48" width="272" height="162" as="geometry" />
        </mxCell>
        <mxCell id="xciEQwY7N64C9Vn3VPuA-11" value="" style="rounded=1;whiteSpace=wrap;html=1;" vertex="1" parent="xciEQwY7N64C9Vn3VPuA-13">
          <mxGeometry width="272" height="162" as="geometry" />
        </mxCell>
        <mxCell id="xciEQwY7N64C9Vn3VPuA-12" value="&lt;h1&gt;Chat service&lt;/h1&gt;&lt;div&gt;&lt;font style=&quot;font-size: 21px;&quot;&gt;1. store message&lt;/font&gt;&lt;/div&gt;&lt;div&gt;&lt;font style=&quot;font-size: 21px;&quot;&gt;2. relay message&lt;/font&gt;&lt;/div&gt;" style="text;html=1;spacing=5;spacingTop=-20;whiteSpace=wrap;overflow=hidden;rounded=0;" vertex="1" parent="xciEQwY7N64C9Vn3VPuA-13">
          <mxGeometry x="39" y="24" width="190" height="120" as="geometry" />
        </mxCell>
        <mxCell id="xciEQwY7N64C9Vn3VPuA-14" value="" style="endArrow=classic;html=1;rounded=0;fontSize=21;startSize=8;endSize=8;exitX=1;exitY=0.5;exitDx=0;exitDy=0;" edge="1" parent="1">
          <mxGeometry width="50" height="50" relative="1" as="geometry">
            <mxPoint x="101" y="128" as="sourcePoint" />
            <mxPoint x="359" y="130" as="targetPoint" />
          </mxGeometry>
        </mxCell>
        <mxCell id="xciEQwY7N64C9Vn3VPuA-15" value="&lt;font style=&quot;font-size: 20px;&quot;&gt;message&lt;/font&gt;" style="edgeLabel;html=1;align=center;verticalAlign=middle;resizable=0;points=[];;fontSize=12;" vertex="1" connectable="0" parent="xciEQwY7N64C9Vn3VPuA-14">
          <mxGeometry x="-0.0231" y="-2" relative="1" as="geometry">
            <mxPoint as="offset" />
          </mxGeometry>
        </mxCell>
        <mxCell id="xciEQwY7N64C9Vn3VPuA-18" value="" style="group" vertex="1" connectable="0" parent="1">
          <mxGeometry x="359" y="25" width="109" height="217" as="geometry" />
        </mxCell>
        <mxCell id="xciEQwY7N64C9Vn3VPuA-17" value="" style="rounded=1;whiteSpace=wrap;html=1;" vertex="1" parent="xciEQwY7N64C9Vn3VPuA-18">
          <mxGeometry width="109" height="217" as="geometry" />
        </mxCell>
        <mxCell id="xciEQwY7N64C9Vn3VPuA-3" value="" style="verticalLabelPosition=bottom;verticalAlign=top;html=1;shadow=0;dashed=0;strokeWidth=1;shape=mxgraph.android.phone2;strokeColor=#c0c0c0;" vertex="1" parent="xciEQwY7N64C9Vn3VPuA-18">
          <mxGeometry x="30" y="38" width="47" height="111" as="geometry" />
        </mxCell>
        <mxCell id="xciEQwY7N64C9Vn3VPuA-16" value="receiver" style="text;html=1;align=center;verticalAlign=middle;whiteSpace=wrap;rounded=0;;fontSize=16;" vertex="1" parent="xciEQwY7N64C9Vn3VPuA-18">
          <mxGeometry x="30" y="174" width="60" height="30" as="geometry" />
        </mxCell>
      </root>
    </mxGraphModel>
  </diagram>
</mxfile>
